ply
format ascii 1.0
comment VCGLIB generated
element vertex 300
property float x
property float y
property float z
element face 596
property list uchar int vertex_indices
end_header
0.312548 -0.758897 -0.558755 
0.334448 -0.756697 -0.565955 
0.312548 -0.758896 0.557745 
-0.312052 -0.758897 -0.558755 
0.318148 -0.757196 -0.580755 
-0.317652 -0.757196 -0.580755 
0.626648 -0.694696 -0.975155 
0.643648 -0.689397 -0.996255 
-0.626152 -0.694696 -0.975155 
0.638448 -0.695197 -0.954555 
0.659748 -0.690296 -0.982655 
0.638448 -0.695196 0.953545 
0.659748 -0.690296 0.981645 
0.334448 -0.756696 0.564945 
0.626648 -0.694696 0.974145 
0.318148 -0.757196 0.579745 
-0.626152 -0.694696 0.974145 
0.643648 -0.689396 0.995145 
-0.643152 -0.689396 0.995145 
0.815348 -0.681096 1.241345 
0.520148 -0.485196 1.552845 
0.832548 -0.671796 1.246245 
0.833448 -0.679996 1.228545 
1.017148 -0.600796 1.168045 
1.017748 -0.601397 -1.169555 
1.034348 -0.590896 1.166545 
1.022948 -0.592396 1.184145 
1.182248 -0.448796 1.214745 
0.644448 -0.369996 1.714045 
0.637448 -0.354796 1.723045 
0.960648 -0.192496 1.443245 
0.536148 -0.477096 1.559045 
0.623648 -0.366296 1.721145 
0.553348 -0.332396 1.768545 
0.518848 -0.475596 1.571245 
-0.518352 -0.475596 1.571245 
-0.519652 -0.485196 1.552845 
-0.623152 -0.366296 1.721145 
-0.535652 -0.477096 1.559045 
-0.831952 -0.671796 1.246245 
-0.643952 -0.369996 1.714045 
-1.022452 -0.592396 1.184145 
-0.960152 -0.192496 1.443245 
-0.636952 -0.354796 1.723045 
-0.565852 -0.320896 1.769845 
-0.956952 -0.177796 1.453645 
-0.972752 -0.179396 1.438145 
-0.957552 0.175504 1.454045 
-0.973252 0.177204 1.438545 
-0.637552 0.352604 1.723545 
-0.953352 0.192604 1.447645 
-0.970252 0.201404 1.433345 
-0.644052 0.367204 1.713145 
-0.826652 0.666204 1.256445 
-0.843252 0.665104 1.243345 
-0.535652 0.474404 1.559145 
-0.806952 0.673404 1.250645 
-0.520152 0.484804 1.554645 
0.807448 0.673404 1.250645 
-0.807752 0.679304 1.230745 
-0.642952 0.689604 0.996145 
0.808248 0.679304 1.230745 
-0.833552 0.677704 1.229045 
-0.659252 0.687404 0.981645 
-1.017252 0.598504 1.168445 
-1.017252 0.598504 -1.169555 
-1.034452 0.588704 1.166945 
-1.022252 0.589504 1.183045 
-1.181252 0.445804 1.213645 
-1.194252 0.432704 1.207845 
-1.192152 0.447104 1.196545 
-1.320852 0.280904 1.010545 
-1.320852 0.280903 -1.011555 
-1.332052 0.265504 0.967045 
-1.320452 0.269804 1.024545 
-1.320452 -0.272596 1.024545 
-1.329652 0.260104 1.005045 
-1.329652 -0.262996 1.005045 
-1.473552 -0.001396 0.265645 
-1.474452 0.006804 0.235445 
-1.474452 -0.009696 0.235445 
-1.332052 -0.268396 0.967045 
-1.474452 -0.009696 -0.236455 
-1.332052 -0.268396 -0.968055 
-1.474452 0.006804 -0.236455 
-1.473552 -0.001396 -0.266655 
-1.329652 0.260103 -1.006055 
-1.329652 -0.262997 -1.006055 
-1.320452 -0.272597 -1.025555 
-1.320452 0.269803 -1.025555 
-0.973252 0.177203 -1.439655 
-1.193652 -0.434897 -1.208455 
-1.320752 -0.283797 -1.011555 
-1.320752 -0.283796 1.010545 
-1.191552 -0.449297 -1.197055 
-1.181752 -0.448797 -1.215755 
-1.033852 -0.590897 -1.167555 
-1.016652 -0.600797 -1.169055 
-1.033852 -0.590896 1.166545 
-1.022452 -0.592397 -1.185155 
-0.643952 -0.369997 -1.715055 
-0.831952 -0.671797 -1.247355 
-0.535652 -0.477097 -1.560055 
-0.832852 -0.679997 -1.229555 
-0.814852 -0.681097 -1.242355 
-0.643152 -0.689397 -0.996255 
-0.519652 -0.485197 -1.553855 
-0.518352 -0.475597 -1.572255 
0.520748 -0.485697 -1.554355 
0.815948 -0.681797 -1.242855 
0.519448 -0.476097 -1.572755 
0.536748 -0.477697 -1.560555 
0.645048 -0.370697 -1.715555 
1.182848 -0.449497 -1.216255 
0.833148 -0.672497 -1.247755 
0.834048 -0.680597 -1.230055 
1.023548 -0.592997 -1.185655 
1.034948 -0.591597 -1.167955 
1.192648 -0.449997 -1.197555 
1.194748 -0.435597 -1.208855 
1.321248 -0.283797 -1.011555 
1.321248 -0.283796 1.010545 
1.320948 -0.272697 -1.025555 
1.332548 -0.268396 -0.968055 
1.474948 -0.009696 -0.236455 
1.332548 -0.268396 0.967045 
1.330148 -0.262997 -1.006055 
1.330148 0.260103 -1.006055 
1.474048 -0.001396 -0.266655 
1.474948 0.006804 -0.236455 
1.332548 0.265503 -0.968055 
1.474948 0.006804 0.235445 
1.474948 -0.009696 0.235445 
1.332548 0.265504 0.967045 
1.474048 -0.001396 0.265645 
1.330148 0.260104 1.005045 
1.330148 -0.262996 1.005045 
1.320948 -0.272596 1.024545 
0.973748 0.177204 1.438545 
1.320948 0.269804 1.024545 
1.194148 -0.434896 1.207445 
0.973248 -0.179396 1.438145 
1.192048 -0.449296 1.196045 
0.957448 -0.177796 1.453645 
0.958048 0.175504 1.454045 
0.566348 0.318004 1.769845 
0.566348 -0.320896 1.769845 
0.638048 0.352604 1.723545 
0.553448 0.329604 1.768545 
0.547848 0.298004 1.781945 
0.547848 -0.300896 1.781945 
0.284148 -0.001396 1.920545 
0.536848 0.315104 1.780745 
0.265648 0.007004 1.923245 
-0.536352 0.315104 1.780745 
-0.265152 0.007004 1.923245 
-0.552952 0.329604 1.768545 
-0.547352 0.298004 1.781945 
-0.565852 0.318004 1.769845 
-0.547352 -0.300896 1.781945 
-0.283652 -0.001396 1.920545 
-0.265152 -0.009896 1.923245 
0.265648 -0.009896 1.923245 
-0.536352 -0.317996 1.780745 
-0.552852 -0.332396 1.768545 
0.536848 -0.317996 1.780745 
0.519448 0.473304 1.571745 
-0.623752 0.364104 1.721545 
-0.518952 0.473304 1.571745 
0.624248 0.364104 1.721545 
0.520648 0.484804 1.554645 
0.536148 0.474404 1.559145 
0.644548 0.367204 1.713145 
0.827148 0.666204 1.256445 
0.953848 0.192604 1.447645 
0.843748 0.665104 1.243345 
0.834048 0.677704 1.229045 
1.022748 0.589504 1.183045 
0.970748 0.201404 1.433345 
1.181748 0.445804 1.213645 
1.194748 0.432704 1.207845 
1.192648 0.447104 1.196545 
1.321248 0.280904 1.010545 
1.034948 0.588704 1.166945 
1.034348 0.588003 -1.167555 
1.017748 0.598604 1.168445 
0.659748 0.687404 -0.982655 
1.017148 0.597904 -1.169055 
0.833448 0.677103 -1.229555 
1.022148 0.588803 -1.183655 
0.843048 0.664503 -1.243855 
1.181148 0.445203 -1.214255 
1.192048 0.446403 -1.197055 
0.970248 0.200803 -1.433955 
1.194148 0.432003 -1.208455 
1.320948 0.269803 -1.025555 
0.973248 0.176603 -1.439255 
0.973748 -0.180097 -1.439655 
0.957448 0.174903 -1.454655 
0.566348 -0.320897 -1.770955 
0.637448 0.352003 -1.724155 
0.958048 -0.178397 -1.455155 
0.953348 0.191903 -1.448255 
0.643948 0.366603 -1.713755 
0.826548 0.665503 -1.257055 
0.535548 0.473803 -1.559755 
0.806848 0.672703 -1.251255 
0.520048 0.484203 -1.555255 
-0.806952 0.673403 -1.251755 
0.807748 0.678703 -1.231355 
0.643448 0.689604 -0.997155 
-0.807752 0.679403 -1.231855 
-0.642952 0.689604 -0.997155 
-0.833552 0.677703 -1.230055 
-0.826652 0.666203 -1.257455 
-0.843252 0.665103 -1.244355 
-0.535652 0.474403 -1.560155 
-0.953352 0.192603 -1.448755 
-0.957552 0.175504 -1.455155 
-0.970252 0.201403 -1.434355 
-0.644052 0.367203 -1.714255 
-0.637552 0.352603 -1.724555 
-0.623752 0.364103 -1.722655 
-0.552952 0.329603 -1.769555 
-0.518952 0.473303 -1.572755 
0.553348 0.329603 -1.769555 
0.518848 0.472803 -1.572255 
-0.520152 0.484803 -1.555655 
0.623648 0.363403 -1.722155 
0.566348 0.318003 -1.770955 
0.536848 0.315103 -1.781755 
0.265648 0.007003 -1.924255 
-0.536352 0.315103 -1.781755 
0.547848 0.298003 -1.783055 
0.547848 -0.300897 -1.783055 
0.284148 -0.001397 -1.921555 
0.265648 -0.009897 -1.924255 
-0.265152 -0.009897 -1.924255 
0.536848 -0.317997 -1.781755 
0.553448 -0.332497 -1.769555 
-0.536352 -0.317997 -1.781755 
-0.552852 -0.332497 -1.769555 
-0.547352 -0.300897 -1.783055 
-0.547352 0.298003 -1.783055 
-0.283652 -0.001397 -1.921555 
-0.565852 -0.320897 -1.770955 
-0.565852 0.318003 -1.770955 
-0.636952 -0.354797 -1.724155 
-0.956952 -0.177797 -1.454655 
-0.623152 -0.366297 -1.722155 
-0.960152 -0.192497 -1.444255 
-0.972752 -0.179397 -1.439255 
-0.265152 0.007003 -1.924255 
0.624248 -0.366997 -1.722655 
0.638048 -0.355497 -1.724555 
-1.181252 0.445803 -1.214655 
-1.194252 0.432704 -1.208855 
-1.022252 0.589503 -1.184055 
-1.192152 0.447103 -1.197555 
-1.034452 0.588703 -1.167955 
-0.659252 0.687404 -0.982655 
-0.637952 0.692303 -0.954555 
-0.626152 0.691804 -0.975155 
-0.333952 0.753804 -0.565955 
-0.637952 0.692304 0.953545 
-0.626152 0.691804 0.974145 
-0.333952 0.753804 0.564945 
-0.317652 0.754304 0.579745 
-0.312052 0.756004 0.557745 
-0.312052 0.756003 -0.558755 
0.312548 0.756004 0.557745 
0.312548 0.756003 -0.558755 
0.318148 0.754304 0.579745 
0.334448 0.753804 0.564945 
0.334448 0.753804 -0.565955 
0.638448 0.692304 0.953545 
0.659748 0.687404 0.981645 
0.626648 0.691804 0.974145 
0.638448 0.692303 -0.954555 
0.626648 0.691804 -0.975155 
0.318148 0.754304 -0.580755 
-0.317652 0.754304 -0.580755 
0.643448 0.689604 0.996145 
0.961248 -0.193197 -1.444755 
1.321248 0.280903 -1.011555 
-0.659252 -0.690296 -0.982655 
-0.659252 -0.690296 0.981645 
-1.016652 -0.600796 1.168045 
-0.637952 -0.695197 -0.954555 
-0.333952 -0.756697 -0.565955 
-0.637952 -0.695196 0.953545 
-0.333952 -0.756696 0.564945 
-0.317652 -0.757196 0.579745 
-0.312052 -0.758896 0.557745 
-0.832852 -0.679996 1.228545 
-0.814852 -0.681096 1.241345 
-1.191552 -0.449296 1.196045 
-1.193652 -0.434896 1.207445 
-1.181752 -0.448796 1.214745 
-1.332052 0.265503 -0.968055 
3 0 1 13 
3 0 13 2 
3 1 0 4 
3 0 2 293 
3 0 293 3 
3 3 5 4 
3 3 4 0 
3 4 5 8 
3 4 8 6 
3 6 9 1 
3 6 1 4 
3 7 6 8 
3 7 8 105 
3 9 6 7 
3 9 7 10 
3 12 11 9 
3 12 9 10 
3 13 1 9 
3 13 9 11 
3 14 11 12 
3 14 12 17 
3 11 14 15 
3 11 15 13 
3 292 15 14 
3 292 14 16 
3 18 16 14 
3 18 14 17 
3 22 19 17 
3 22 17 12 
3 18 17 19 
3 18 19 20 
3 31 20 19 
3 31 19 21 
3 21 19 22 
3 24 23 22 
3 24 22 12 
3 21 22 23 
3 21 23 26 
3 24 117 25 
3 24 25 23 
3 26 23 25 
3 26 25 142 
3 26 142 27 
3 26 27 30 
3 26 30 28 
3 26 28 31 
3 26 31 21 
3 30 143 29 
3 30 29 28 
3 32 28 29 
3 28 32 34 
3 28 34 31 
3 32 29 146 
3 32 146 33 
3 35 34 32 
3 35 32 33 
3 20 34 35 
3 20 35 36 
3 20 31 34 
3 33 164 37 
3 33 37 35 
3 36 35 38 
3 38 35 37 
3 38 37 40 
3 39 295 36 
3 39 36 38 
3 41 39 38 
3 41 38 40 
3 41 40 42 
3 41 42 298 
3 43 40 37 
3 40 43 45 
3 40 45 42 
3 164 44 43 
3 164 43 37 
3 47 45 43 
3 47 43 44 
3 46 45 47 
3 46 47 48 
3 45 46 42 
3 44 158 49 
3 44 49 47 
3 47 50 51 
3 47 51 48 
3 50 47 49 
3 50 49 52 
3 51 50 53 
3 51 53 54 
3 52 55 53 
3 52 53 50 
3 56 54 53 
3 55 57 56 
3 55 56 53 
3 56 59 62 
3 56 62 54 
3 57 170 58 
3 57 58 56 
3 59 56 58 
3 59 58 61 
3 60 63 62 
3 60 62 59 
3 60 59 61 
3 60 61 282 
3 65 64 62 
3 65 62 63 
3 54 62 64 
3 54 64 67 
3 65 259 66 
3 65 66 64 
3 64 66 67 
3 54 67 68 
3 54 68 51 
3 67 66 70 
3 67 70 68 
3 68 69 48 
3 68 48 51 
3 69 68 70 
3 69 70 71 
3 69 71 74 
3 72 71 70 
3 72 70 66 
3 72 299 73 
3 72 73 71 
3 74 71 73 
3 74 73 76 
3 74 76 77 
3 74 77 75 
3 74 75 297 
3 74 297 46 
3 46 48 69 
3 46 69 74 
3 77 76 78 
3 76 73 79 
3 76 79 78 
3 81 77 78 
3 81 78 80 
3 78 79 80 
3 80 82 83 
3 80 83 81 
3 80 79 84 
3 80 84 82 
3 82 85 87 
3 82 87 83 
3 82 84 85 
3 299 86 85 
3 299 85 84 
3 86 87 85 
3 83 87 88 
3 83 88 92 
3 88 87 86 
3 88 86 89 
3 88 89 256 
3 88 256 90 
3 90 251 91 
3 90 91 88 
3 91 94 92 
3 91 92 88 
3 93 81 83 
3 93 83 92 
3 93 92 94 
3 93 94 96 
3 94 91 95 
3 99 96 94 
3 99 94 95 
3 287 98 96 
3 287 96 97 
3 96 99 97 
3 96 98 296 
3 96 296 93 
3 101 103 97 
3 101 97 99 
3 99 95 250 
3 99 250 100 
3 99 100 102 
3 99 102 101 
3 102 106 104 
3 102 104 101 
3 101 104 103 
3 103 104 105 
3 103 105 285 
3 7 105 104 
3 7 104 106 
3 106 108 109 
3 106 109 7 
3 106 107 110 
3 106 110 108 
3 106 102 107 
3 114 109 108 
3 114 108 111 
3 110 111 108 
3 111 110 253 
3 111 253 112 
3 111 112 283 
3 111 283 113 
3 111 113 116 
3 111 116 114 
3 116 24 115 
3 116 115 114 
3 114 115 109 
3 113 118 117 
3 113 117 116 
3 24 116 117 
3 25 117 118 
3 25 118 120 
3 118 113 119 
3 118 119 122 
3 118 122 120 
3 120 123 125 
3 120 125 121 
3 120 121 142 
3 120 142 25 
3 120 122 126 
3 120 126 123 
3 123 126 128 
3 123 128 124 
3 124 132 125 
3 124 125 123 
3 195 127 126 
3 195 126 122 
3 126 127 128 
3 128 129 124 
3 127 130 129 
3 127 129 128 
3 124 129 131 
3 124 131 132 
3 131 129 130 
3 131 130 133 
3 132 131 134 
3 133 135 134 
3 133 134 131 
3 132 134 136 
3 132 136 125 
3 135 136 134 
3 137 136 135 
3 137 135 139 
3 125 136 137 
3 125 137 121 
3 138 141 140 
3 138 140 137 
3 137 139 180 
3 137 180 138 
3 140 142 121 
3 140 121 137 
3 27 140 141 
3 27 141 30 
3 142 140 27 
3 138 144 143 
3 138 143 141 
3 141 143 30 
3 145 146 29 
3 145 29 143 
3 143 144 147 
3 143 147 145 
3 145 149 150 
3 145 150 146 
3 147 169 148 
3 147 148 145 
3 145 148 152 
3 145 152 149 
3 150 149 151 
3 149 152 153 
3 149 153 151 
3 155 153 152 
3 155 152 154 
3 156 154 152 
3 156 152 148 
3 154 157 160 
3 154 160 155 
3 157 154 156 
3 157 156 158 
3 44 159 157 
3 44 157 158 
3 157 159 160 
3 161 160 159 
3 161 159 163 
3 161 155 160 
3 162 153 155 
3 162 155 161 
3 162 161 163 
3 162 163 165 
3 33 165 163 
3 33 163 164 
3 163 159 44 
3 163 44 164 
3 33 146 150 
3 33 150 165 
3 165 150 151 
3 165 151 162 
3 151 153 162 
3 167 49 158 
3 167 158 156 
3 156 148 169 
3 156 169 166 
3 166 168 167 
3 166 167 156 
3 52 167 168 
3 52 168 55 
3 52 49 167 
3 57 55 168 
3 57 168 166 
3 57 166 170 
3 171 166 169 
3 171 169 172 
3 166 171 170 
3 173 58 170 
3 173 170 171 
3 171 172 174 
3 171 174 173 
3 173 61 58 
3 173 175 176 
3 173 176 61 
3 175 173 174 
3 175 174 178 
3 177 185 176 
3 177 176 175 
3 179 177 175 
3 179 175 178 
3 178 138 180 
3 178 180 179 
3 138 178 174 
3 138 174 144 
3 181 179 180 
3 179 181 183 
3 179 183 177 
3 139 182 181 
3 139 181 180 
3 184 183 181 
3 184 181 182 
3 185 183 184 
3 185 184 187 
3 185 177 183 
3 185 187 188 
3 185 188 186 
3 186 276 176 
3 186 176 185 
3 190 188 187 
3 190 187 189 
3 184 189 187 
3 190 189 191 
3 190 191 193 
3 189 184 192 
3 189 192 191 
3 192 194 191 
3 191 194 196 
3 191 196 193 
3 194 192 284 
3 194 284 195 
3 197 196 194 
3 197 194 195 
3 197 201 198 
3 197 198 196 
3 198 202 193 
3 198 193 196 
3 198 201 254 
3 198 254 199 
3 199 229 200 
3 199 200 198 
3 202 198 200 
3 202 200 203 
3 203 205 204 
3 203 204 202 
3 204 190 193 
3 204 193 202 
3 205 207 206 
3 205 206 204 
3 190 204 206 
3 190 206 209 
3 207 227 208 
3 207 208 206 
3 209 206 208 
3 209 208 211 
3 188 209 210 
3 188 210 186 
3 190 209 188 
3 210 209 211 
3 210 211 212 
3 211 213 260 
3 211 260 212 
3 214 215 213 
3 214 213 211 
3 214 211 208 
3 215 214 217 
3 215 217 219 
3 214 208 227 
3 214 227 216 
3 216 220 217 
3 216 217 214 
3 220 221 218 
3 220 218 217 
3 90 219 217 
3 90 217 218 
3 222 221 220 
3 216 224 222 
3 216 222 220 
3 221 222 223 
3 221 223 246 
3 225 223 222 
3 225 222 224 
3 224 226 228 
3 224 228 225 
3 207 226 224 
3 207 224 227 
3 216 227 224 
3 203 228 226 
3 203 226 205 
3 207 205 226 
3 228 200 229 
3 228 229 225 
3 228 203 200 
3 225 230 232 
3 225 232 223 
3 233 230 225 
3 233 225 229 
3 230 233 235 
3 230 235 231 
3 231 252 232 
3 231 232 230 
3 199 234 233 
3 199 233 229 
3 233 234 235 
3 236 231 235 
3 236 235 234 
3 236 234 238 
3 237 252 231 
3 237 231 236 
3 237 236 238 
3 237 238 240 
3 241 240 238 
3 241 238 239 
3 238 234 199 
3 238 199 239 
3 241 245 242 
3 241 242 240 
3 240 242 244 
3 240 244 237 
3 246 243 242 
3 246 242 245 
3 242 243 244 
3 249 247 245 
3 249 245 241 
3 246 245 247 
3 246 247 248 
3 250 248 247 
3 250 247 100 
3 249 100 247 
3 110 107 249 
3 110 249 241 
3 100 249 107 
3 100 107 102 
3 90 218 248 
3 90 248 251 
3 248 218 221 
3 248 221 246 
3 251 248 250 
3 95 91 251 
3 95 251 250 
3 246 223 232 
3 246 232 243 
3 243 232 252 
3 243 252 244 
3 244 252 237 
3 241 239 253 
3 241 253 110 
3 239 199 254 
3 239 254 253 
3 253 254 112 
3 112 254 201 
3 112 201 283 
3 219 90 256 
3 219 256 255 
3 255 257 215 
3 255 215 219 
3 258 255 256 
3 255 258 259 
3 255 259 257 
3 89 72 258 
3 89 258 256 
3 66 259 258 
3 66 258 72 
3 65 257 259 
3 257 65 213 
3 257 213 215 
3 63 260 213 
3 63 213 65 
3 261 262 212 
3 261 212 260 
3 63 264 261 
3 63 261 260 
3 262 261 263 
3 262 263 281 
3 266 263 261 
3 266 261 264 
3 267 266 264 
3 267 264 265 
3 265 264 63 
3 265 63 60 
3 267 268 266 
3 269 263 266 
3 269 266 268 
3 271 269 268 
3 271 268 270 
3 268 267 272 
3 268 272 270 
3 270 273 274 
3 270 274 271 
3 273 270 272 
3 277 275 273 
3 277 273 272 
3 274 273 275 
3 274 275 278 
3 186 278 275 
3 186 275 276 
3 282 276 275 
3 282 275 277 
3 186 210 279 
3 186 279 278 
3 278 279 280 
3 278 280 274 
3 281 280 279 
3 281 279 262 
3 212 262 279 
3 212 279 210 
3 271 280 281 
3 271 281 269 
3 280 271 274 
3 263 269 281 
3 272 267 265 
3 272 265 277 
3 282 277 265 
3 282 265 60 
3 61 176 276 
3 61 276 282 
3 201 197 283 
3 283 197 119 
3 283 119 113 
3 195 122 119 
3 195 119 197 
3 195 284 130 
3 195 130 127 
3 182 133 130 
3 182 130 284 
3 182 284 192 
3 182 192 184 
3 135 133 182 
3 135 182 139 
3 172 147 144 
3 172 144 174 
3 169 147 172 
3 109 115 10 
3 109 10 7 
3 12 10 115 
3 12 115 24 
3 285 105 8 
3 285 8 288 
3 285 288 290 
3 285 290 286 
3 285 286 294 
3 285 294 287 
3 287 97 103 
3 287 103 285 
3 288 8 5 
3 288 5 289 
3 289 291 290 
3 289 290 288 
3 291 292 16 
3 291 16 290 
3 18 286 290 
3 18 290 16 
3 293 291 289 
3 293 289 3 
3 291 293 292 
3 2 15 292 
3 2 292 293 
3 5 3 289 
3 41 287 294 
3 41 294 39 
3 287 41 98 
3 286 18 295 
3 286 295 294 
3 294 295 39 
3 20 36 295 
3 20 295 18 
3 298 296 98 
3 298 98 41 
3 75 93 296 
3 75 296 297 
3 298 297 296 
3 42 46 297 
3 42 297 298 
3 93 75 77 
3 93 77 81 
3 86 299 72 
3 86 72 89 
3 84 79 73 
3 84 73 299 
3 15 2 13 
